<?xml version="1.0" encoding="UTF-8" standalone="no"?>
<!DOCTYPE svg PUBLIC "-//W3C//DTD SVG 1.1//EN" "http://www.w3.org/Graphics/SVG/1.1/DTD/svg11.dtd">
<svg xmlns="http://www.w3.org/2000/svg" version="1.1" viewBox="0.00 0.00 1254.00 1254.00">
<path fill="#ffffff" d="
  M 626.94 222.47
  C 633.92 222.47 641.40 223.14 649.38 224.47
  C 660.43 226.32 670.31 229.93 679.00 235.30
  C 766.91 289.58 851.73 341.86 933.46 392.14
  C 943.15 398.10 949.33 402.45 952.00 405.19
  C 958.51 411.88 963.30 420.01 966.36 429.59
  C 971.41 445.37 971.43 459.59 971.43 479.10
  C 971.41 602.41 971.41 689.44 971.42 740.18
  C 971.42 751.08 971.02 759.61 970.23 765.77
  C 966.98 791.12 957.70 813.21 935.42 827.42
  C 808.67 908.30 726.45 960.76 688.78 984.81
  C 677.11 992.26 669.40 996.69 665.67 998.12
  C 657.31 1001.32 648.65 1003.41 639.68 1004.39
  C 636.61 1004.72 632.35 1004.89 626.93 1004.89
  C 621.50 1004.89 617.25 1004.72 614.17 1004.39
  C 605.21 1003.41 596.55 1001.32 588.19 998.12
  C 584.45 996.69 576.75 992.26 565.08 984.81
  C 527.40 960.76 445.19 908.30 318.44 827.41
  C 296.16 813.20 286.88 791.11 283.63 765.76
  C 282.84 759.60 282.44 751.07 282.44 740.17
  C 282.46 689.43 282.46 602.41 282.44 479.09
  C 282.44 459.58 282.46 445.36 287.51 429.58
  C 290.57 420.00 295.36 411.87 301.87 405.18
  C 304.54 402.44 310.72 398.09 320.41 392.13
  C 402.14 341.86 486.97 289.58 574.87 235.30
  C 583.57 229.93 593.44 226.32 604.49 224.47
  C 612.48 223.13 619.96 222.47 626.94 222.47
  Z
  M 626.98 663.55
  C 629.52 663.55 633.46 663.35 638.81 662.97
  C 639.22 662.93 639.53 662.60 639.53 662.19
  L 639.53 544.97
  C 639.53 544.64 639.57 544.31 639.66 543.99
  L 641.47 537.20
  C 641.74 536.21 642.38 535.36 643.25 534.81
  C 693.26 503.62 738.65 475.13 779.41 449.34
  C 783.32 446.86 786.97 445.37 790.79 447.02
  C 793.08 448.01 796.18 449.79 800.09 452.34
  C 807.50 457.17 810.79 462.04 811.14 470.76
  C 811.70 484.56 811.10 497.37 811.21 510.42
  C 811.38 530.45 811.34 549.81 811.10 568.52
  C 811.09 568.89 811.19 569.18 811.38 569.38
  C 811.73 569.76 812.11 569.81 812.53 569.53
  C 815.64 567.48 817.25 566.42 817.35 566.35
  C 831.50 557.20 865.01 536.05 917.88 502.90
  C 930.25 495.15 936.94 481.99 937.61 467.40
  C 938.21 454.42 935.67 442.32 927.15 432.57
  C 925.20 430.35 921.05 427.28 914.68 423.35
  C 829.81 370.97 749.65 321.60 674.20 275.25
  C 666.27 270.38 661.47 267.55 659.81 266.77
  C 649.88 262.13 637.35 260.39 626.98 260.39
  C 616.62 260.39 604.09 262.13 594.16 266.77
  C 592.50 267.55 587.70 270.38 579.77 275.25
  C 504.32 321.60 424.16 370.97 339.29 423.35
  C 332.92 427.27 328.76 430.35 326.82 432.57
  C 318.30 442.32 315.76 454.42 316.36 467.40
  C 317.03 481.99 323.72 495.15 336.09 502.90
  C 388.96 536.04 422.47 557.19 436.61 566.35
  C 436.71 566.41 438.32 567.47 441.43 569.53
  C 441.85 569.81 442.24 569.76 442.58 569.38
  C 442.78 569.18 442.87 568.89 442.86 568.52
  C 442.63 549.81 442.59 530.44 442.76 510.42
  C 442.87 497.37 442.27 484.56 442.83 470.76
  C 443.18 462.04 446.47 457.17 453.88 452.34
  C 457.79 449.78 460.89 448.01 463.18 447.02
  C 467.00 445.37 470.65 446.86 474.56 449.34
  C 515.32 475.13 560.70 503.62 610.72 534.81
  C 611.59 535.36 612.23 536.21 612.50 537.20
  L 614.31 543.99
  C 614.39 544.31 614.44 544.64 614.44 544.97
  L 614.43 662.19
  C 614.43 662.60 614.75 662.93 615.16 662.97
  C 620.50 663.35 624.45 663.55 626.98 663.55
  Z
  M 417.49 721.26
  C 416.59 721.96 404.60 731.53 381.51 749.96
  C 378.68 752.22 376.93 753.98 376.26 755.23
  C 372.46 762.31 376.66 771.99 385.35 771.91
  C 387.90 771.89 390.20 771.09 392.25 769.52
  C 399.66 763.85 415.67 751.52 440.27 732.53
  C 444.12 729.56 446.55 724.05 445.00 719.16
  C 444.39 717.23 443.67 715.81 442.83 714.90
  C 434.81 706.23 420.77 692.11 411.53 682.22
  C 401.23 671.21 394.79 664.56 392.22 662.27
  C 391.07 661.26 389.70 660.61 388.11 660.34
  C 383.24 659.52 379.50 660.83 376.88 664.27
  C 373.34 668.93 374.60 675.14 378.52 679.24
  C 397.09 698.63 409.46 711.61 415.61 718.16
  C 416.42 719.02 417.08 719.78 417.59 720.45
  C 417.78 720.70 417.74 721.07 417.49 721.26
  Z
  M 510.0370 817.7112
  C 512.87 812.39 510.85 805.79 505.5259 802.9563
  L 454.4033 775.7739
  C 449.08 772.95 442.48 774.96 439.6484 780.2850
  L 439.4230 780.7088
  C 436.59 786.03 438.61 792.63 443.9341 795.4637
  L 495.0567 822.6461
  C 500.38 825.47 506.98 823.46 509.8116 818.1350
  L 510.0370 817.7112
  Z"
/>
<path fill="#ffffff" d="
  M 626.96 341.79
  C 634.62 341.79 641.68 343.74 648.14 347.63
  C 659.20 354.29 694.95 376.29 755.38 413.63
  C 758.14 415.34 759.98 416.83 760.89 418.11
  C 763.71 422.08 764.09 426.37 762.02 430.98
  C 761.39 432.37 760.50 433.43 759.34 434.15
  C 754.63 437.10 712.28 463.72 632.28 514.02
  C 630.78 514.96 629.00 515.43 626.96 515.43
  C 624.91 515.43 623.14 514.96 621.64 514.02
  C 541.64 463.72 499.28 437.09 494.58 434.15
  C 493.42 433.43 492.52 432.37 491.90 430.98
  C 489.83 426.37 490.21 422.08 493.03 418.11
  C 493.94 416.83 495.78 415.33 498.54 413.63
  C 558.97 376.29 594.72 354.29 605.78 347.63
  C 612.23 343.74 619.30 341.79 626.96 341.79
  Z"
/>
</svg>
